<mxfile host="Electron" modified="2024-07-04T09:02:29.700Z" agent="Mozilla/5.0 (Windows NT 10.0; Win64; x64) AppleWebKit/537.36 (KHTML, like Gecko) draw.io/22.0.0 Chrome/114.0.5735.289 Electron/25.8.3 Safari/537.36" etag="Zsi7DvPs_lbA9UReKmG0" version="22.0.0" type="device">
  <diagram name="Seite-1" id="gQQJtmfsodX5_Kkv21Ag">
    <mxGraphModel dx="1221" dy="823" grid="1" gridSize="10" guides="1" tooltips="1" connect="1" arrows="1" fold="1" page="1" pageScale="1" pageWidth="1169" pageHeight="827" math="0" shadow="0">
      <root>
        <mxCell id="0" />
        <mxCell id="1" parent="0" />
        <mxCell id="Q-sz1YwRhFP45TQKCQxv-19" style="edgeStyle=orthogonalEdgeStyle;rounded=0;orthogonalLoop=1;jettySize=auto;html=1;exitX=0.5;exitY=1;exitDx=0;exitDy=0;" edge="1" parent="1" source="Q-sz1YwRhFP45TQKCQxv-1" target="Q-sz1YwRhFP45TQKCQxv-12">
          <mxGeometry relative="1" as="geometry" />
        </mxCell>
        <mxCell id="Q-sz1YwRhFP45TQKCQxv-20" style="edgeStyle=orthogonalEdgeStyle;rounded=0;orthogonalLoop=1;jettySize=auto;html=1;exitX=0.5;exitY=1;exitDx=0;exitDy=0;" edge="1" parent="1" source="Q-sz1YwRhFP45TQKCQxv-1" target="Q-sz1YwRhFP45TQKCQxv-3">
          <mxGeometry relative="1" as="geometry" />
        </mxCell>
        <mxCell id="Q-sz1YwRhFP45TQKCQxv-21" style="edgeStyle=orthogonalEdgeStyle;rounded=0;orthogonalLoop=1;jettySize=auto;html=1;exitX=0.5;exitY=1;exitDx=0;exitDy=0;" edge="1" parent="1" source="Q-sz1YwRhFP45TQKCQxv-1" target="Q-sz1YwRhFP45TQKCQxv-5">
          <mxGeometry relative="1" as="geometry" />
        </mxCell>
        <mxCell id="Q-sz1YwRhFP45TQKCQxv-22" style="edgeStyle=orthogonalEdgeStyle;rounded=0;orthogonalLoop=1;jettySize=auto;html=1;exitX=0.5;exitY=1;exitDx=0;exitDy=0;" edge="1" parent="1" source="Q-sz1YwRhFP45TQKCQxv-1" target="Q-sz1YwRhFP45TQKCQxv-7">
          <mxGeometry relative="1" as="geometry" />
        </mxCell>
        <mxCell id="Q-sz1YwRhFP45TQKCQxv-23" style="edgeStyle=orthogonalEdgeStyle;rounded=0;orthogonalLoop=1;jettySize=auto;html=1;exitX=0.5;exitY=1;exitDx=0;exitDy=0;" edge="1" parent="1" source="Q-sz1YwRhFP45TQKCQxv-1" target="Q-sz1YwRhFP45TQKCQxv-8">
          <mxGeometry relative="1" as="geometry" />
        </mxCell>
        <mxCell id="Q-sz1YwRhFP45TQKCQxv-24" style="edgeStyle=orthogonalEdgeStyle;rounded=0;orthogonalLoop=1;jettySize=auto;html=1;exitX=0.5;exitY=1;exitDx=0;exitDy=0;" edge="1" parent="1" source="Q-sz1YwRhFP45TQKCQxv-1" target="Q-sz1YwRhFP45TQKCQxv-9">
          <mxGeometry relative="1" as="geometry" />
        </mxCell>
        <mxCell id="Q-sz1YwRhFP45TQKCQxv-1" value="&lt;b&gt;Bridge Network&lt;/b&gt;&lt;br&gt;net_project_lb" style="rounded=0;whiteSpace=wrap;html=1;" vertex="1" parent="1">
          <mxGeometry x="525" y="60" width="120" height="60" as="geometry" />
        </mxCell>
        <mxCell id="Q-sz1YwRhFP45TQKCQxv-3" value="Container für Gogs Datenbank PostGres" style="rounded=0;whiteSpace=wrap;html=1;fillColor=#fff2cc;strokeColor=#d6b656;" vertex="1" parent="1">
          <mxGeometry x="280" y="240" width="120" height="60" as="geometry" />
        </mxCell>
        <mxCell id="Q-sz1YwRhFP45TQKCQxv-11" value="" style="edgeStyle=orthogonalEdgeStyle;rounded=0;orthogonalLoop=1;jettySize=auto;html=1;" edge="1" parent="1" source="Q-sz1YwRhFP45TQKCQxv-5" target="Q-sz1YwRhFP45TQKCQxv-10">
          <mxGeometry relative="1" as="geometry" />
        </mxCell>
        <mxCell id="Q-sz1YwRhFP45TQKCQxv-5" value="Container für Gogs" style="rounded=0;whiteSpace=wrap;html=1;fillColor=#fff2cc;strokeColor=#d6b656;" vertex="1" parent="1">
          <mxGeometry x="440" y="240" width="120" height="60" as="geometry" />
        </mxCell>
        <mxCell id="Q-sz1YwRhFP45TQKCQxv-16" value="" style="edgeStyle=orthogonalEdgeStyle;rounded=0;orthogonalLoop=1;jettySize=auto;html=1;" edge="1" parent="1" source="Q-sz1YwRhFP45TQKCQxv-7" target="Q-sz1YwRhFP45TQKCQxv-15">
          <mxGeometry relative="1" as="geometry" />
        </mxCell>
        <mxCell id="Q-sz1YwRhFP45TQKCQxv-7" value="Container für Jupyter" style="rounded=0;whiteSpace=wrap;html=1;fillColor=#f5f5f5;fontColor=#333333;strokeColor=#666666;" vertex="1" parent="1">
          <mxGeometry x="600" y="240" width="120" height="60" as="geometry" />
        </mxCell>
        <mxCell id="Q-sz1YwRhFP45TQKCQxv-18" value="" style="edgeStyle=orthogonalEdgeStyle;rounded=0;orthogonalLoop=1;jettySize=auto;html=1;" edge="1" parent="1" source="Q-sz1YwRhFP45TQKCQxv-8" target="Q-sz1YwRhFP45TQKCQxv-17">
          <mxGeometry relative="1" as="geometry" />
        </mxCell>
        <mxCell id="Q-sz1YwRhFP45TQKCQxv-8" value="Container für Drupal" style="rounded=0;whiteSpace=wrap;html=1;fillColor=#dae8fc;strokeColor=#6c8ebf;" vertex="1" parent="1">
          <mxGeometry x="760" y="240" width="120" height="60" as="geometry" />
        </mxCell>
        <mxCell id="Q-sz1YwRhFP45TQKCQxv-9" value="Container für Drupal Datenbank PostGres" style="rounded=0;whiteSpace=wrap;html=1;fillColor=#dae8fc;strokeColor=#6c8ebf;" vertex="1" parent="1">
          <mxGeometry x="920" y="240" width="120" height="60" as="geometry" />
        </mxCell>
        <mxCell id="Q-sz1YwRhFP45TQKCQxv-10" value="Erreichbar auf&amp;nbsp;&lt;br&gt;localhost:3000" style="rounded=0;whiteSpace=wrap;html=1;fillColor=#fff2cc;strokeColor=#d6b656;" vertex="1" parent="1">
          <mxGeometry x="440" y="380" width="120" height="60" as="geometry" />
        </mxCell>
        <mxCell id="Q-sz1YwRhFP45TQKCQxv-14" value="" style="edgeStyle=orthogonalEdgeStyle;rounded=0;orthogonalLoop=1;jettySize=auto;html=1;" edge="1" parent="1" source="Q-sz1YwRhFP45TQKCQxv-12" target="Q-sz1YwRhFP45TQKCQxv-13">
          <mxGeometry relative="1" as="geometry" />
        </mxCell>
        <mxCell id="Q-sz1YwRhFP45TQKCQxv-12" value="Container für Portainer" style="rounded=0;whiteSpace=wrap;html=1;" vertex="1" parent="1">
          <mxGeometry x="120" y="240" width="120" height="60" as="geometry" />
        </mxCell>
        <mxCell id="Q-sz1YwRhFP45TQKCQxv-13" value="Erreichbar auf&amp;nbsp;&lt;br&gt;localhost:9000" style="rounded=0;whiteSpace=wrap;html=1;" vertex="1" parent="1">
          <mxGeometry x="120" y="380" width="120" height="60" as="geometry" />
        </mxCell>
        <mxCell id="Q-sz1YwRhFP45TQKCQxv-15" value="Erreichbar auf&lt;br&gt;localhost:8888" style="rounded=0;whiteSpace=wrap;html=1;fillColor=#f5f5f5;fontColor=#333333;strokeColor=#666666;" vertex="1" parent="1">
          <mxGeometry x="600" y="380" width="120" height="60" as="geometry" />
        </mxCell>
        <mxCell id="Q-sz1YwRhFP45TQKCQxv-17" value="Erreichbar auf&lt;br&gt;localhost:8080" style="rounded=0;whiteSpace=wrap;html=1;fillColor=#dae8fc;strokeColor=#6c8ebf;" vertex="1" parent="1">
          <mxGeometry x="760" y="380" width="120" height="60" as="geometry" />
        </mxCell>
      </root>
    </mxGraphModel>
  </diagram>
</mxfile>
